STARTFONT 2.1
COMMENT
COMMENT Converted from OpenType font "..\ttf\Gotham Book Regular.otf" by "otf2bdf.exe 3.0".
COMMENT
FONT -FreeType-Gotham Book-Medium-R-Normal--39-280-100-100-P-182-ISO10646-1
SIZE 28 100 100
FONTBOUNDINGBOX 46 43 -2 -7
STARTPROPERTIES 19
FOUNDRY "FreeType"
FAMILY_NAME "Gotham Book"
WEIGHT_NAME "Medium"
SLANT "R"
SETWIDTH_NAME "Normal"
ADD_STYLE_NAME ""
PIXEL_SIZE 39
POINT_SIZE 280
RESOLUTION_X 100
RESOLUTION_Y 100
SPACING "P"
AVERAGE_WIDTH 182
CHARSET_REGISTRY "ISO10646"
CHARSET_ENCODING "1"
FONT_ASCENT 35
FONT_DESCENT 6
COPYRIGHT "HTF Gothamª Copr. 2000 The Hoefler Type Foundry, Inc. Info: www.typography.com"
_OTF_FONTFILE "..\ttf\Gotham Book Regular.otf"
_OTF_PSNAME "Gotham-Book"
ENDPROPERTIES
CHARS 223
STARTCHAR 0020
ENCODING 32
SWIDTH 308 0
DWIDTH 12 0
BBX 0 0 0 0
BITMAP
ENDCHAR
STARTCHAR 0021
ENCODING 33
SWIDTH 282 0
DWIDTH 11 0
BBX 4 27 3 1
BITMAP
F0
F0
F0
70
70
70
70
70
70
60
60
60
60
60
60
60
60
60
60
00
00
00
00
F0
F0
F0
F0
ENDCHAR
STARTCHAR 0022
ENCODING 34
SWIDTH 437 0
DWIDTH 17 0
BBX 11 10 3 17
BITMAP
70E0
F0E0
E0E0
E0E0
E0C0
E1C0
C1C0
C180
C180
8180
ENDCHAR
STARTCHAR 0023
ENCODING 35
SWIDTH 694 0
DWIDTH 27 0
BBX 23 27 2 1
BITMAP
01C070
01C070
01C070
018060
018060
0380E0
0380E0
7FFFFE
7FFFFE
7FFFFE
0301C0
0701C0
0701C0
0701C0
070180
060180
060380
0E0380
FFFFF8
FFFFF8
0E0300
0C0300
1C0700
1C0700
1C0700
1C0700
180600
ENDCHAR
STARTCHAR 0024
ENCODING 36
SWIDTH 642 0
DWIDTH 25 0
BBX 20 33 2 -3
BITMAP
007000
007000
03FC00
0FFF00
1FFFC0
3C63E0
3860C0
706000
706000
706000
706000
786000
3C6000
1FE000
0FF800
03FF00
007F80
0067C0
0061E0
0060E0
006070
006070
006070
6060E0
F060E0
7C61E0
3FFFC0
0FFF00
01FC00
007000
007000
007000
007000
ENDCHAR
STARTCHAR 0025
ENCODING 37
SWIDTH 822 0
DWIDTH 32 0
BBX 28 27 2 1
BITMAP
0F800380
3FC00700
70E00E00
60600C00
E0701C00
E0703800
E0303000
E0307000
E070E000
6071C000
70E18000
3FC38000
1F870000
00060000
000E1F80
001C7FC0
003870E0
0030E060
0070C070
00E0C070
01C0C070
0180C070
0380E060
0700E060
060070C0
0E003FC0
1C001F00
ENDCHAR
STARTCHAR 0026
ENCODING 38
SWIDTH 694 0
DWIDTH 27 0
BBX 23 27 2 0
BITMAP
00F800
03FE00
07DF00
0F0780
0E0380
0C0380
1C0380
0E0380
0E0700
0F0F00
079E00
03FC00
07E000
1FE008
3C701C
78781C
703C38
E01E38
E00F70
E007F0
E003E0
E001E0
F007F0
780F78
3FFE3C
1FFC1E
07E00C
ENDCHAR
STARTCHAR 0027
ENCODING 39
SWIDTH 257 0
DWIDTH 10 0
BBX 4 10 3 17
BITMAP
70
F0
E0
E0
E0
E0
C0
C0
C0
80
ENDCHAR
STARTCHAR 0028
ENCODING 40
SWIDTH 437 0
DWIDTH 17 0
BBX 11 32 3 -5
BITMAP
00E0
01E0
03C0
0700
0E00
1C00
3C00
3800
7000
7000
E000
E000
E000
E000
E000
E000
E000
E000
E000
E000
E000
F000
7000
7800
3800
3C00
1E00
0F00
0780
03C0
01E0
0060
ENDCHAR
STARTCHAR 0029
ENCODING 41
SWIDTH 437 0
DWIDTH 17 0
BBX 12 33 2 -6
BITMAP
4000
6000
F800
3C00
1E00
0F00
0780
0380
01C0
01C0
00E0
00E0
00E0
0070
0070
0070
0070
0070
0070
0070
0070
00E0
00E0
00E0
01C0
01C0
0380
0700
0F00
1E00
3C00
F000
6000
ENDCHAR
STARTCHAR 002A
ENCODING 42
SWIDTH 437 0
DWIDTH 17 0
BBX 11 12 3 16
BITMAP
0C00
0C00
8C40
ECE0
7780
1E00
1F00
75C0
CCC0
8C40
0C00
0C00
ENDCHAR
STARTCHAR 002B
ENCODING 43
SWIDTH 642 0
DWIDTH 25 0
BBX 19 19 3 4
BITMAP
00E000
00E000
00E000
00E000
00E000
00E000
00E000
00E000
FFFFE0
FFFFE0
FFFFE0
00E000
00E000
00E000
00E000
00E000
00E000
00E000
00E000
ENDCHAR
STARTCHAR 002C
ENCODING 44
SWIDTH 257 0
DWIDTH 10 0
BBX 4 9 2 -4
BITMAP
70
70
70
70
30
30
70
E0
80
ENDCHAR
STARTCHAR 002D
ENCODING 45
SWIDTH 411 0
DWIDTH 16 0
BBX 11 3 2 11
BITMAP
FFE0
FFE0
FFE0
ENDCHAR
STARTCHAR 002E
ENCODING 46
SWIDTH 257 0
DWIDTH 10 0
BBX 3 4 3 1
BITMAP
E0
E0
E0
E0
ENDCHAR
STARTCHAR 002F
ENCODING 47
SWIDTH 514 0
DWIDTH 20 0
BBX 20 36 -1 -5
BITMAP
000030
000070
000060
0000E0
0000C0
0001C0
000180
000380
000300
000700
000600
000E00
000C00
001C00
001800
003800
003800
007000
007000
00E000
00E000
01C000
01C000
038000
038000
070000
070000
0E0000
0E0000
1C0000
1C0000
380000
380000
700000
700000
E00000
ENDCHAR
STARTCHAR 0030
ENCODING 48
SWIDTH 720 0
DWIDTH 28 0
BBX 23 27 2 1
BITMAP
007E00
03FF80
07FFE0
0F01F0
1E00F0
3C0078
38003C
38003C
70001C
70001E
70001E
70000E
F0000E
F0000E
F0000E
F0000E
70000E
70001C
70001C
78001C
380038
3C0078
1E00F0
0F81E0
07FFC0
03FF80
00FE00
ENDCHAR
STARTCHAR 0031
ENCODING 49
SWIDTH 360 0
DWIDTH 14 0
BBX 9 27 1 1
BITMAP
0780
3F80
FF80
FB80
0380
0380
0380
0380
0380
0380
0380
0380
0380
0380
0380
0380
0380
0380
0380
0380
0380
0380
0380
0380
0380
0380
0380
ENDCHAR
STARTCHAR 0032
ENCODING 50
SWIDTH 591 0
DWIDTH 23 0
BBX 18 27 2 1
BITMAP
03F800
0FFE00
1FFF00
3C0780
7803C0
F001C0
2001C0
0001C0
0001C0
0001C0
0003C0
000380
000780
000F00
001E00
003C00
007800
00F000
01E000
03C000
078000
1E0000
3C0000
780000
FFFFC0
FFFFC0
FFFFC0
ENDCHAR
STARTCHAR 0033
ENCODING 51
SWIDTH 617 0
DWIDTH 24 0
BBX 19 27 2 1
BITMAP
7FFFC0
7FFFC0
7FFFC0
000380
000700
000E00
001C00
003C00
007800
00F000
01E000
03E000
03FE00
03FF00
000F80
0003C0
0001C0
0001E0
0000E0
0000E0
0000E0
6001C0
F003C0
7C0780
3FFF00
0FFE00
03F800
ENDCHAR
STARTCHAR 0034
ENCODING 52
SWIDTH 668 0
DWIDTH 26 0
BBX 22 27 2 1
BITMAP
000380
000780
000780
000F80
001F80
003B80
007B80
007380
00E380
01C380
038380
078380
0F0380
0E0380
1C0380
380380
780380
F00380
FFFFFC
FFFFFC
FFFFFC
000380
000380
000380
000380
000380
000380
ENDCHAR
STARTCHAR 0035
ENCODING 53
SWIDTH 617 0
DWIDTH 24 0
BBX 19 27 2 1
BITMAP
3FFFC0
3FFFC0
3FFFC0
380000
380000
380000
380000
380000
380000
380000
39F800
3FFE00
3FFF80
1807C0
0003C0
0001E0
0000E0
0000E0
0000E0
0000E0
0000E0
6001E0
F003C0
7C0780
3FFF00
0FFE00
03F800
ENDCHAR
STARTCHAR 0036
ENCODING 54
SWIDTH 642 0
DWIDTH 25 0
BBX 20 27 2 1
BITMAP
00FE00
03FF80
07FFE0
0F01E0
1E0040
3C0000
380000
780000
700000
700000
707C00
73FF00
F7FFC0
EE03E0
FC00E0
F800F0
F00070
700070
700070
700070
700070
3800F0
3C00E0
1E03C0
0FFFC0
07FF00
01FC00
ENDCHAR
STARTCHAR 0037
ENCODING 55
SWIDTH 591 0
DWIDTH 23 0
BBX 18 27 3 1
BITMAP
FFFFC0
FFFFC0
FFFFC0
000380
000780
000700
000F00
000E00
001E00
001C00
003C00
003800
007800
007000
00F000
00E000
01E000
01C000
03C000
038000
078000
070000
0F0000
0E0000
1E0000
1C0000
3C0000
ENDCHAR
STARTCHAR 0038
ENCODING 56
SWIDTH 642 0
DWIDTH 25 0
BBX 20 27 2 1
BITMAP
01FC00
0FFF00
1FFF80
3C03C0
7801E0
7000E0
7000E0
7000E0
7000E0
7801E0
3C01C0
1E0780
0FFF00
0FFF00
1F9F80
3C03E0
7000E0
F000F0
E00070
E00070
E00070
F000F0
7000E0
7C03E0
3FFFC0
0FFF00
03FC00
ENDCHAR
STARTCHAR 0039
ENCODING 57
SWIDTH 642 0
DWIDTH 25 0
BBX 20 27 2 1
BITMAP
01FC00
0FFF00
1FFF80
3C03C0
3801E0
7000E0
7000E0
700070
F00070
F00070
7000F0
7000F0
7801F0
3C03F0
1FFF70
0FFE70
03F870
000070
0000F0
0000E0
0000E0
0001C0
3003C0
7C0F80
3FFF00
0FFC00
03F000
ENDCHAR
STARTCHAR 003A
ENCODING 58
SWIDTH 257 0
DWIDTH 10 0
BBX 4 20 3 0
BITMAP
F0
F0
F0
F0
00
00
00
00
00
00
00
00
00
00
00
00
F0
F0
F0
F0
ENDCHAR
STARTCHAR 003B
ENCODING 59
SWIDTH 257 0
DWIDTH 10 0
BBX 5 25 2 -5
BITMAP
78
78
78
78
00
00
00
00
00
00
00
00
00
00
00
00
78
78
78
78
18
30
30
E0
80
ENDCHAR
STARTCHAR 003C
ENCODING 60
SWIDTH 642 0
DWIDTH 25 0
BBX 18 21 3 3
BITMAP
000040
0001C0
0007C0
001F80
007E00
01F800
07E000
1F8000
7E0000
F80000
E00000
F80000
7E0000
1F8000
07E000
01F800
007E00
001F80
0007C0
0001C0
000040
ENDCHAR
STARTCHAR 003D
ENCODING 61
SWIDTH 642 0
DWIDTH 25 0
BBX 18 12 3 7
BITMAP
FFFFC0
FFFFC0
FFFFC0
000000
000000
000000
000000
000000
000000
FFFFC0
FFFFC0
FFFFC0
ENDCHAR
STARTCHAR 003E
ENCODING 62
SWIDTH 642 0
DWIDTH 25 0
BBX 18 20 4 3
BITMAP
800000
E00000
F80000
7E0000
1F8000
07E000
01F000
007C00
001F00
0007C0
0003C0
000FC0
003F00
00FC00
03F000
0FC000
3F0000
FC0000
F00000
C00000
ENDCHAR
STARTCHAR 003F
ENCODING 63
SWIDTH 540 0
DWIDTH 21 0
BBX 18 27 1 1
BITMAP
03F800
1FFE00
3FFF00
780F80
F00780
600380
0003C0
0001C0
0001C0
000380
000380
000780
001F00
01FE00
01F800
01C000
01C000
018000
018000
000000
000000
000000
000000
01C000
01C000
01C000
01C000
ENDCHAR
STARTCHAR 0040
ENCODING 64
SWIDTH 977 0
DWIDTH 38 0
BBX 33 34 2 -6
BITMAP
0007F80000
003E1F0000
00E001C000
0180006000
0600003000
0C00001800
0800000C00
1000000600
3003E00300
200FFB8100
601FFF8180
403C0F8180
4070078080
C070070080
C0E0070080
80E0070080
80E0070080
80E0070080
C0E0070080
C0E00E0180
C0E01E0100
40703F0300
407FF70600
601FE3FC00
200780F000
3000000000
1800000000
0800000000
0400000000
0300000000
0180006000
00F001C000
003FFF0000
0003F00000
ENDCHAR
STARTCHAR 0041
ENCODING 65
SWIDTH 797 0
DWIDTH 31 0
BBX 26 27 2 1
BITMAP
001E0000
001E0000
001F0000
003F0000
003F8000
00738000
00738000
00E1C000
00E1C000
01C0E000
01C0E000
03807000
03807000
03807800
07003800
07003800
0E001C00
0FFFFC00
1FFFFE00
1FFFFE00
38000700
38000700
38000780
70000380
700003C0
E00001C0
E00001C0
ENDCHAR
STARTCHAR 0042
ENCODING 66
SWIDTH 720 0
DWIDTH 28 0
BBX 21 27 4 1
BITMAP
FFFE00
FFFF80
FFFFC0
E001E0
E000E0
E000F0
E00070
E00070
E00070
E000E0
E001E0
E003C0
FFFF80
FFFF80
FFFFE0
E000F0
E00078
E00038
E00038
E00038
E00038
E00038
E00078
E000F0
FFFFE0
FFFFC0
FFFE00
ENDCHAR
STARTCHAR 0043
ENCODING 67
SWIDTH 745 0
DWIDTH 29 0
BBX 24 27 3 1
BITMAP
007F80
01FFF0
07FFFC
0F807E
1E001E
3C0004
380000
700000
700000
E00000
E00000
E00000
E00000
E00000
E00000
E00000
E00000
E00000
F00000
700000
780000
3C0006
1E001F
0F807C
07FFF8
01FFE0
007F80
ENDCHAR
STARTCHAR 0044
ENCODING 68
SWIDTH 771 0
DWIDTH 30 0
BBX 23 27 4 1
BITMAP
FFF800
FFFF00
FFFFC0
E007E0
E001F0
E00078
E00038
E0003C
E0001C
E0001E
E0000E
E0000E
E0000E
E0000E
E0000E
E0000E
E0000E
E0001E
E0001C
E0003C
E00038
E00078
E001F0
E007E0
FFFF80
FFFF00
FFF800
ENDCHAR
STARTCHAR 0045
ENCODING 69
SWIDTH 668 0
DWIDTH 26 0
BBX 19 27 4 1
BITMAP
FFFFE0
FFFFE0
FFFFE0
E00000
E00000
E00000
E00000
E00000
E00000
E00000
E00000
E00000
FFFF80
FFFF80
FFFF80
E00000
E00000
E00000
E00000
E00000
E00000
E00000
E00000
E00000
FFFFE0
FFFFE0
FFFFE0
ENDCHAR
STARTCHAR 0046
ENCODING 70
SWIDTH 668 0
DWIDTH 26 0
BBX 19 27 4 1
BITMAP
FFFFE0
FFFFE0
FFFFE0
E00000
E00000
E00000
E00000
E00000
E00000
E00000
E00000
E00000
FFFF80
FFFF80
FFFF80
E00000
E00000
E00000
E00000
E00000
E00000
E00000
E00000
E00000
E00000
E00000
E00000
ENDCHAR
STARTCHAR 0047
ENCODING 71
SWIDTH 771 0
DWIDTH 30 0
BBX 24 27 3 1
BITMAP
007FC0
01FFF0
07FFFC
0F807E
1E001C
3C0000
380000
700000
700000
E00000
E00000
E00000
E00000
E007FF
E007FF
E00007
E00007
E00007
F00007
700007
780007
3C0007
1E000F
0F803E
07FFFC
01FFF0
007F80
ENDCHAR
STARTCHAR 0048
ENCODING 72
SWIDTH 771 0
DWIDTH 30 0
BBX 21 27 4 1
BITMAP
E00038
E00038
E00038
E00038
E00038
E00038
E00038
E00038
E00038
E00038
E00038
E00038
FFFFF8
FFFFF8
FFFFF8
E00038
E00038
E00038
E00038
E00038
E00038
E00038
E00038
E00038
E00038
E00038
E00038
ENDCHAR
STARTCHAR 0049
ENCODING 73
SWIDTH 282 0
DWIDTH 11 0
BBX 3 27 4 1
BITMAP
E0
E0
E0
E0
E0
E0
E0
E0
E0
E0
E0
E0
E0
E0
E0
E0
E0
E0
E0
E0
E0
E0
E0
E0
E0
E0
E0
ENDCHAR
STARTCHAR 004A
ENCODING 74
SWIDTH 565 0
DWIDTH 22 0
BBX 17 27 1 1
BITMAP
000380
000380
000380
000380
000380
000380
000380
000380
000380
000380
000380
000380
000380
000380
000380
000380
000380
000380
000380
000380
000700
600700
F00F00
7C1E00
3FFC00
1FF800
07E000
ENDCHAR
STARTCHAR 004B
ENCODING 75
SWIDTH 720 0
DWIDTH 28 0
BBX 22 27 4 1
BITMAP
E0003C
E00078
E000F0
E001E0
E003C0
E00780
E00F00
E01E00
E03C00
E07800
E0F000
E1E000
E3E000
E7F000
EF7800
FE3800
FC3C00
F81E00
F00F00
E00780
E00380
E003C0
E001E0
E000F0
E00078
E00038
E0003C
ENDCHAR
STARTCHAR 004C
ENCODING 76
SWIDTH 617 0
DWIDTH 24 0
BBX 18 27 4 1
BITMAP
E00000
E00000
E00000
E00000
E00000
E00000
E00000
E00000
E00000
E00000
E00000
E00000
E00000
E00000
E00000
E00000
E00000
E00000
E00000
E00000
E00000
E00000
E00000
E00000
FFFFC0
FFFFC0
FFFFC0
ENDCHAR
STARTCHAR 004D
ENCODING 77
SWIDTH 874 0
DWIDTH 34 0
BBX 25 27 4 1
BITMAP
E0000380
F0000780
F8000780
F8000F80
FC001F80
FE001F80
EE003B80
EF007B80
E7007380
E380E380
E3C1E380
E1C1C380
E0E38380
E0F78380
E0770380
E03E0380
E03E0380
E01C0380
E0080380
E0080380
E0000380
E0000380
E0000380
E0000380
E0000380
E0000380
E0000380
ENDCHAR
STARTCHAR 004E
ENCODING 78
SWIDTH 797 0
DWIDTH 31 0
BBX 22 27 4 1
BITMAP
E0001C
F0001C
F8001C
F8001C
FC001C
FE001C
EF001C
E7001C
E3801C
E3C01C
E1E01C
E0F01C
E0701C
E0781C
E03C1C
E01E1C
E00E1C
E0071C
E0079C
E003DC
E001FC
E000FC
E000FC
E0007C
E0003C
E0001C
E0000C
ENDCHAR
STARTCHAR 004F
ENCODING 79
SWIDTH 848 0
DWIDTH 33 0
BBX 27 27 3 1
BITMAP
007F8000
01FFF000
07FFF800
0F807E00
1E001F00
3C000F00
38000780
700003C0
700001C0
E00001C0
E00001E0
E00001E0
E00000E0
E00000E0
E00000E0
E00000E0
E00001C0
F00001C0
700001C0
78000380
78000780
3C000F00
1E001E00
0F807C00
07FFF800
01FFE000
007F8000
ENDCHAR
STARTCHAR 0050
ENCODING 80
SWIDTH 668 0
DWIDTH 26 0
BBX 20 27 4 1
BITMAP
FFFC00
FFFF00
FFFF80
E007C0
E001E0
E000E0
E000F0
E00070
E00070
E00070
E000F0
E000E0
E001E0
E003C0
E01F80
FFFF00
FFFC00
E00000
E00000
E00000
E00000
E00000
E00000
E00000
E00000
E00000
E00000
ENDCHAR
STARTCHAR 0051
ENCODING 81
SWIDTH 848 0
DWIDTH 33 0
BBX 27 27 3 0
BITMAP
007F8000
01FFF000
07FFF800
0F807E00
1E001F00
3C000F00
38000780
700003C0
700001C0
E00001C0
E00001E0
E00001E0
E00000E0
E00000E0
E00000E0
E00000E0
E00081C0
F001C1C0
7001E1C0
7800F380
78007F80
3C003F00
1E001F00
0F807F80
07FFFBC0
01FFE1E0
007F80C0
ENDCHAR
STARTCHAR 0052
ENCODING 82
SWIDTH 720 0
DWIDTH 28 0
BBX 22 27 4 1
BITMAP
FFFE00
FFFF80
FFFFE0
E001F0
E000F0
E00078
E00038
E00038
E00038
E00038
E00078
E00070
E000F0
E007E0
FFFF80
FFFE00
E03C00
E01E00
E00F00
E00700
E00780
E003C0
E001E0
E000E0
E000F0
E00078
E0003C
ENDCHAR
STARTCHAR 0053
ENCODING 83
SWIDTH 642 0
DWIDTH 25 0
BBX 20 27 2 1
BITMAP
03FC00
0FFF80
1FFFC0
3C03E0
3800C0
700000
700000
700000
700000
780000
3C0000
1F8000
0FF800
03FF00
007FC0
0007E0
0001E0
0000F0
000070
000070
000070
600070
F800E0
7E01E0
3FFFC0
0FFF80
01FC00
ENDCHAR
STARTCHAR 0054
ENCODING 84
SWIDTH 642 0
DWIDTH 25 0
BBX 21 27 2 1
BITMAP
FFFFF8
FFFFF8
FFFFF8
007000
007000
007000
007000
007000
007000
007000
007000
007000
007000
007000
007000
007000
007000
007000
007000
007000
007000
007000
007000
007000
007000
007000
007000
ENDCHAR
STARTCHAR 0055
ENCODING 85
SWIDTH 771 0
DWIDTH 30 0
BBX 23 27 3 1
BITMAP
E0000E
E0000E
E0000E
E0000E
E0000E
E0000E
E0000E
E0000E
E0000E
E0000E
E0000E
E0000E
E0000E
E0000E
E0000E
E0000E
E0000E
70001C
70001C
70001C
78001C
380038
3C0078
1F01F0
0FFFE0
07FFC0
00FE00
ENDCHAR
STARTCHAR 0056
ENCODING 86
SWIDTH 745 0
DWIDTH 29 0
BBX 25 27 2 1
BITMAP
E0000380
F0000700
70000700
70000F00
78000E00
38000E00
3C001C00
1C001C00
1C003800
0E003800
0E003800
0F007000
07007000
0700E000
0380E000
0381E000
03C1C000
01C1C000
01C38000
00E38000
00E70000
00770000
00770000
007E0000
003E0000
003C0000
001C0000
ENDCHAR
STARTCHAR 0057
ENCODING 87
SWIDTH 1105 0
DWIDTH 43 0
BBX 38 27 2 1
BITMAP
E00038001C
F00078001C
700078003C
70007C0038
7800FC0038
3800FC0078
3800EE0070
3C01CE0070
1C01CE00F0
1C01C700E0
1E038700E0
0E038701C0
0E038381C0
0F070381C0
0707038380
070701C380
038601C380
038E01C700
038E00E700
01CC00E700
01DC00EE00
01DC006E00
00F8007E00
00F8007C00
00F8003C00
0070003C00
0070003800
ENDCHAR
STARTCHAR 0058
ENCODING 88
SWIDTH 720 0
DWIDTH 28 0
BBX 24 27 2 1
BITMAP
70000E
78001C
3C003C
1C0078
1E0070
0F00E0
0781E0
0383C0
03C380
01E700
00FF00
007E00
007C00
003C00
007E00
00FE00
00E700
01C780
0383C0
0781C0
0700E0
0E00F0
1E0078
3C0038
38003C
70001E
F0000F
ENDCHAR
STARTCHAR 0059
ENCODING 89
SWIDTH 720 0
DWIDTH 28 0
BBX 25 27 1 1
BITMAP
F0000780
78000700
38000F00
3C001E00
1E001C00
0E003800
0F007800
07807000
0380E000
03C1E000
01E1C000
00E38000
00778000
007F0000
003E0000
001E0000
001C0000
001C0000
001C0000
001C0000
001C0000
001C0000
001C0000
001C0000
001C0000
001C0000
001C0000
ENDCHAR
STARTCHAR 005A
ENCODING 90
SWIDTH 694 0
DWIDTH 27 0
BBX 21 27 3 1
BITMAP
FFFFF8
FFFFF8
FFFFF8
0000F0
0001E0
0001C0
000380
000780
000F00
000E00
001C00
003C00
007800
00F000
00E000
01C000
03C000
078000
070000
0E0000
1E0000
3C0000
780000
700000
FFFFF8
FFFFF8
FFFFF8
ENDCHAR
STARTCHAR 005B
ENCODING 91
SWIDTH 437 0
DWIDTH 17 0
BBX 10 32 4 -5
BITMAP
FFC0
FFC0
C000
C000
C000
C000
C000
C000
C000
C000
C000
C000
C000
C000
C000
C000
C000
C000
C000
C000
C000
C000
C000
C000
C000
C000
C000
C000
C000
C000
FFC0
FFC0
ENDCHAR
STARTCHAR 005C
ENCODING 92
SWIDTH 514 0
DWIDTH 20 0
BBX 20 36 0 -5
BITMAP
E00000
E00000
700000
700000
380000
380000
1C0000
1C0000
0E0000
0E0000
070000
070000
038000
038000
01C000
01C000
00E000
00E000
007000
007000
003800
003800
001C00
001C00
000E00
000E00
000700
000700
000300
000380
000180
0001C0
0000C0
0000E0
000060
000070
ENDCHAR
STARTCHAR 005D
ENCODING 93
SWIDTH 437 0
DWIDTH 17 0
BBX 11 32 2 -5
BITMAP
FFE0
FFE0
00E0
00E0
00E0
00E0
00E0
00E0
00E0
00E0
00E0
00E0
00E0
00E0
00E0
00E0
00E0
00E0
00E0
00E0
00E0
00E0
00E0
00E0
00E0
00E0
00E0
00E0
00E0
00E0
FFE0
FFE0
ENDCHAR
STARTCHAR 005E
ENCODING 94
SWIDTH 488 0
DWIDTH 19 0
BBX 13 8 3 19
BITMAP
0700
0F80
0DC0
18C0
38E0
7070
6030
C018
ENDCHAR
STARTCHAR 005F
ENCODING 95
SWIDTH 591 0
DWIDTH 23 0
BBX 23 2 0 -6
BITMAP
FFFFFE
FFFFFE
ENDCHAR
STARTCHAR 0060
ENCODING 96
SWIDTH 488 0
DWIDTH 19 0
BBX 6 6 6 23
BITMAP
20
E0
F0
78
38
1C
ENDCHAR
STARTCHAR 0061
ENCODING 97
SWIDTH 591 0
DWIDTH 23 0
BBX 17 20 2 0
BITMAP
07F000
3FFC00
3FFE00
300F00
000780
000380
000380
000380
0FFF80
3FFF80
780780
F00380
E00380
E00380
E00380
E00780
F00F80
781F80
3FFB80
0FC380
ENDCHAR
STARTCHAR 0062
ENCODING 98
SWIDTH 668 0
DWIDTH 26 0
BBX 20 28 3 1
BITMAP
E00000
E00000
E00000
E00000
E00000
E00000
E00000
E00000
E0FC00
E3FF00
E7FF80
EE03C0
FC01E0
F800E0
F000F0
F00070
E00070
E00070
E00070
E00070
E00070
F00070
F000E0
F801E0
FC03C0
EF0F80
E3FF00
E0FC00
ENDCHAR
STARTCHAR 0063
ENCODING 99
SWIDTH 565 0
DWIDTH 22 0
BBX 18 20 2 0
BITMAP
01F800
07FF00
0FFF80
1E03C0
380180
700000
700000
E00000
E00000
E00000
E00000
E00000
F00000
700000
780000
380180
3E03C0
1FFF80
07FF00
01F800
ENDCHAR
STARTCHAR 0064
ENCODING 100
SWIDTH 668 0
DWIDTH 26 0
BBX 20 28 2 1
BITMAP
000070
000070
000070
000070
000070
000070
000070
000070
01F070
07FC70
1FFF70
3E07F0
3801F0
7000F0
7000F0
F00070
E00070
E00070
E00070
E00070
E00070
700070
7000F0
3801F0
3C03F0
1F0F70
0FFE70
01F070
ENDCHAR
STARTCHAR 0065
ENCODING 101
SWIDTH 591 0
DWIDTH 23 0
BBX 19 20 2 0
BITMAP
01F800
07FE00
1FBF00
3C0780
380380
7001C0
7001C0
E001C0
E000E0
FFFFE0
FFFFE0
E00000
E00000
700000
700000
380180
3C03C0
1FFF80
07FE00
01F800
ENDCHAR
STARTCHAR 0066
ENCODING 102
SWIDTH 360 0
DWIDTH 14 0
BBX 12 28 2 1
BITMAP
07F0
0FF0
1F30
1C00
1C00
3800
3800
3800
FFF0
FFF0
FFF0
3800
3800
3800
3800
3800
3800
3800
3800
3800
3800
3800
3800
3800
3800
3800
3800
3800
ENDCHAR
STARTCHAR 0067
ENCODING 103
SWIDTH 668 0
DWIDTH 26 0
BBX 20 26 2 -7
BITMAP
01F870
0FFE70
1F8F70
3C03F0
7801F0
7000F0
700070
E00070
E00070
E00070
E00070
F00070
7000F0
7800F0
3C03F0
1F0F70
0FFE70
07FC70
000070
000070
0000E0
2000E0
3801C0
7F0FC0
1FFF80
07FE00
ENDCHAR
STARTCHAR 0068
ENCODING 104
SWIDTH 617 0
DWIDTH 24 0
BBX 18 28 3 1
BITMAP
E00000
E00000
E00000
E00000
E00000
E00000
E00000
E00000
E1F800
E7FE00
EFFF00
FC0F80
F80780
F00380
F00380
E001C0
E001C0
E001C0
E001C0
E001C0
E001C0
E001C0
E001C0
E001C0
E001C0
E001C0
E001C0
E001C0
ENDCHAR
STARTCHAR 0069
ENCODING 105
SWIDTH 257 0
DWIDTH 10 0
BBX 4 28 3 0
BITMAP
F0
F0
F0
F0
00
00
00
00
60
60
60
60
60
60
60
60
60
60
60
60
60
60
60
60
60
60
60
60
ENDCHAR
STARTCHAR 006A
ENCODING 106
SWIDTH 257 0
DWIDTH 10 0
BBX 7 34 0 -7
BITMAP
1E
1E
1E
1E
00
00
00
00
0C
0C
0C
0C
0C
0C
0C
0C
0C
0C
0C
0C
0C
0C
0C
0C
0C
0C
0C
0C
0C
0C
1C
1C
FC
F8
ENDCHAR
STARTCHAR 006B
ENCODING 107
SWIDTH 565 0
DWIDTH 22 0
BBX 17 28 3 1
BITMAP
E00000
E00000
E00000
E00000
E00000
E00000
E00000
E00000
E00780
E00F00
E00E00
E01C00
E03800
E07000
E0E000
E1C000
E38000
E7C000
EFE000
FCE000
F87000
F07800
E03C00
E01C00
E00E00
E00F00
E00780
E00380
ENDCHAR
STARTCHAR 006C
ENCODING 108
SWIDTH 257 0
DWIDTH 10 0
BBX 2 28 4 1
BITMAP
C0
C0
C0
C0
C0
C0
C0
C0
C0
C0
C0
C0
C0
C0
C0
C0
C0
C0
C0
C0
C0
C0
C0
C0
C0
C0
C0
C0
ENDCHAR
STARTCHAR 006D
ENCODING 109
SWIDTH 951 0
DWIDTH 37 0
BBX 30 20 3 0
BITMAP
E1F00FC0
E7FC3FF0
EF3E79F8
F80FE078
F007C03C
F007801C
F003801C
E003801C
E003801C
E003801C
E003801C
E003801C
E003801C
E003801C
E003801C
E003801C
E003801C
E003801C
E003801C
E003801C
ENDCHAR
STARTCHAR 006E
ENCODING 110
SWIDTH 617 0
DWIDTH 24 0
BBX 18 20 3 0
BITMAP
E1F800
E7FE00
EF3F00
FC0780
F80380
F00380
F00380
E001C0
E001C0
E001C0
E001C0
E001C0
E001C0
E001C0
E001C0
E001C0
E001C0
E001C0
E001C0
E001C0
ENDCHAR
STARTCHAR 006F
ENCODING 111
SWIDTH 642 0
DWIDTH 25 0
BBX 21 20 2 0
BITMAP
01FC00
07FF00
0FFF80
1E03C0
3801E0
7000F0
700070
E00070
E00078
E00038
E00038
E00070
F00070
700070
7800F0
3801E0
3E03C0
1FFF80
07FF00
01F800
ENDCHAR
STARTCHAR 0070
ENCODING 112
SWIDTH 668 0
DWIDTH 26 0
BBX 20 26 3 -6
BITMAP
E0FC00
E3FF00
E70F80
EC03C0
F801E0
F000E0
F00070
E00070
E00070
E00070
E00070
E00070
F00070
F000F0
F800E0
FC01E0
EE03C0
E7FF80
E3FF00
E0FC00
E00000
E00000
E00000
E00000
E00000
E00000
ENDCHAR
STARTCHAR 0071
ENCODING 113
SWIDTH 668 0
DWIDTH 26 0
BBX 20 26 2 -6
BITMAP
01F870
07FE70
1F0F70
3C03F0
3801F0
7000F0
700070
E00070
E00070
E00070
E00070
E00070
F00070
7000F0
7800F0
3801F0
3E0770
1FFF70
07FC70
01F070
000070
000070
000070
000070
000070
000070
ENDCHAR
STARTCHAR 0072
ENCODING 114
SWIDTH 411 0
DWIDTH 16 0
BBX 11 20 3 0
BITMAP
E060
E3E0
E7E0
EF00
EC00
F800
F800
F000
F000
E000
E000
E000
E000
E000
E000
E000
E000
E000
E000
E000
ENDCHAR
STARTCHAR 0073
ENCODING 115
SWIDTH 488 0
DWIDTH 19 0
BBX 15 20 2 0
BITMAP
07E0
1FF8
3EFC
701C
7000
6000
7000
7800
3F00
1FE0
07F8
007C
001E
000E
000E
400E
F01C
FFFC
3FF8
0FE0
ENDCHAR
STARTCHAR 0074
ENCODING 116
SWIDTH 411 0
DWIDTH 16 0
BBX 11 26 2 0
BITMAP
3800
3800
3800
3800
3800
3800
FFE0
FFE0
FFE0
3800
3800
3800
3800
3800
3800
3800
3800
3800
3800
3800
3800
3800
1C00
1FE0
0FE0
07E0
ENDCHAR
STARTCHAR 0075
ENCODING 117
SWIDTH 617 0
DWIDTH 24 0
BBX 17 20 3 0
BITMAP
E00380
E00380
E00380
E00380
E00380
E00380
E00380
E00380
E00380
E00380
E00380
E00380
E00380
E00380
E00380
700780
780F80
3E7B80
1FF380
07C380
ENDCHAR
STARTCHAR 0076
ENCODING 118
SWIDTH 591 0
DWIDTH 23 0
BBX 19 20 2 0
BITMAP
E000E0
E001C0
F001C0
7003C0
700380
380380
380700
1C0700
1C0E00
1C0E00
0E0E00
0E1C00
071C00
073800
033800
03B000
03F000
01F000
01E000
00E000
ENDCHAR
STARTCHAR 0077
ENCODING 119
SWIDTH 848 0
DWIDTH 33 0
BBX 29 20 2 0
BITMAP
E0070038
E0070038
F00F0070
700F8070
700F8070
781D80E0
381DC0E0
3819C0E0
1C38E1C0
1C38E1C0
1C30E1C0
0C707380
0E707380
0E607380
06E03F00
07E03F00
07C01E00
03C01E00
03C01E00
03800C00
ENDCHAR
STARTCHAR 0078
ENCODING 120
SWIDTH 565 0
DWIDTH 22 0
BBX 18 20 2 0
BITMAP
F003C0
700380
380700
3C0E00
1E1E00
0E1C00
073800
07F000
03F000
01E000
01E000
03F000
077800
0F3800
0E1C00
1C0E00
380F00
780780
700380
E001C0
ENDCHAR
STARTCHAR 0079
ENCODING 121
SWIDTH 591 0
DWIDTH 23 0
BBX 20 26 1 -7
BITMAP
F00070
7000F0
7800E0
3800E0
3801C0
1C01C0
1C01C0
0E0380
0E0380
070700
070700
070700
038E00
038E00
01CC00
01DC00
00FC00
00F800
007800
007000
007000
007000
00E000
21C000
3FC000
7F0000
ENDCHAR
STARTCHAR 007A
ENCODING 122
SWIDTH 565 0
DWIDTH 22 0
BBX 17 20 2 0
BITMAP
7FFF80
7FFF80
7FFF80
000F00
000E00
001C00
003800
007800
00F000
01E000
01C000
038000
070000
0E0000
1E0000
3C0000
780000
7FFF80
FFFF80
FFFF80
ENDCHAR
STARTCHAR 007B
ENCODING 123
SWIDTH 488 0
DWIDTH 19 0
BBX 14 33 2 -6
BITMAP
0004
003C
00FC
01E0
0380
0380
0380
0300
0300
0300
0300
0300
0300
0700
0700
1E00
F800
FC00
0E00
0700
0700
0300
0300
0300
0300
0300
0300
0380
0380
03C0
01E0
00FC
003C
ENDCHAR
STARTCHAR 007C
ENCODING 124
SWIDTH 308 0
DWIDTH 12 0
BBX 2 36 5 -5
BITMAP
C0
C0
C0
C0
C0
C0
C0
C0
C0
C0
C0
C0
C0
C0
C0
C0
C0
C0
C0
C0
C0
C0
C0
C0
C0
C0
C0
C0
C0
C0
C0
C0
C0
C0
C0
C0
ENDCHAR
STARTCHAR 007D
ENCODING 125
SWIDTH 488 0
DWIDTH 19 0
BBX 14 32 2 -5
BITMAP
F800
7E00
1F00
0700
0380
0380
0380
0380
0380
0380
0380
0380
0380
01C0
01F0
007C
007C
01E0
01C0
0380
0380
0380
0380
0380
0380
0380
0380
0300
0700
1E00
FC00
F000
ENDCHAR
STARTCHAR 007E
ENCODING 126
SWIDTH 462 0
DWIDTH 18 0
BBX 12 5 3 10
BITMAP
3830
7E70
FFF0
C7E0
C000
ENDCHAR
STARTCHAR 00A0
ENCODING 160
SWIDTH 308 0
DWIDTH 12 0
BBX 0 0 0 0
BITMAP
ENDCHAR
STARTCHAR 00A1
ENCODING 161
SWIDTH 282 0
DWIDTH 11 0
BBX 4 27 3 1
BITMAP
F0
F0
F0
F0
00
00
00
00
60
60
60
60
60
60
60
60
60
70
70
70
70
70
70
70
F0
F0
F0
ENDCHAR
STARTCHAR 00A2
ENCODING 162
SWIDTH 591 0
DWIDTH 23 0
BBX 18 27 2 1
BITMAP
001C00
001C00
001800
01FC00
07FF00
0FFF80
1E33C0
3C3180
783000
703000
707000
E06000
E06000
E06000
E06000
F0E000
70C000
70C000
38C080
3CC1C0
1FC7C0
0FFF00
03FE00
018000
018000
038000
038000
ENDCHAR
STARTCHAR 00A3
ENCODING 163
SWIDTH 642 0
DWIDTH 25 0
BBX 19 27 3 1
BITMAP
00FE00
03FF80
07FFC0
0F03E0
0E00E0
1E0040
1C0000
1C0000
1C0000
1C0000
1C0000
1C0000
1C0000
FFFF00
FFFF00
FFFF00
1C0000
1C0000
1C0000
1C0000
1C0000
1C0000
1C0000
1C0000
3FFFE0
FFFFE0
FFFFE0
ENDCHAR
STARTCHAR 00A4
ENCODING 164
SWIDTH 720 0
DWIDTH 28 0
BBX 23 27 2 1
BITMAP
001FC0
007FF0
00FFF8
01E03C
03801E
07800E
070000
0E0000
0E0000
FFFF80
FFFF80
1C0000
1C0000
1C0000
1C0000
FFFF80
FFFF80
FFFF80
0E0000
0E0000
070004
07800E
03C01E
01E03C
00FFF8
007FF0
001F80
ENDCHAR
STARTCHAR 00A5
ENCODING 165
SWIDTH 694 0
DWIDTH 27 0
BBX 24 27 1 1
BITMAP
F0000F
78000E
38001C
3C003C
1E0038
0E0070
0F00F0
0700E0
0381C0
03C3C0
01C380
00E700
00F700
007E00
1FFFF8
1FFFF8
1FFFF8
001C00
001C00
001C00
1FFFF8
1FFFF8
001FF8
001C00
001C00
001C00
001C00
ENDCHAR
STARTCHAR 00A7
ENCODING 167
SWIDTH 642 0
DWIDTH 25 0
BBX 20 27 2 1
BITMAP
03F800
0FFF00
1FBF80
1C03C0
1C0180
1C0000
1E0000
0F8000
07F000
1FFF00
383FC0
7003E0
E000F0
E00070
700070
7E00E0
3FE1C0
07FF80
00FE00
000F80
000380
0003C0
180380
3C0380
1FFF80
07FF00
01FC00
ENDCHAR
STARTCHAR 00A8
ENCODING 168
SWIDTH 488 0
DWIDTH 19 0
BBX 11 4 4 23
BITMAP
F1E0
F1E0
F1E0
F1E0
ENDCHAR
STARTCHAR 00A9
ENCODING 169
SWIDTH 822 0
DWIDTH 32 0
BBX 28 27 2 1
BITMAP
003FC000
00E07000
03000C00
04000600
08000300
10000180
200F00C0
203FE040
4070E060
40C00020
C1C00020
81800030
81800030
81800030
81800030
81C00020
C0C00020
40E06020
407DE060
603FC040
200000C0
10000180
08000300
06000600
03000C00
01E07000
003F8000
ENDCHAR
STARTCHAR 00AA
ENCODING 170
SWIDTH 385 0
DWIDTH 15 0
BBX 10 16 2 12
BITMAP
3F00
7F80
01C0
00C0
1EC0
7FC0
60C0
C0C0
C0C0
73C0
3EC0
0000
0000
0000
FFC0
FFC0
ENDCHAR
STARTCHAR 00AB
ENCODING 171
SWIDTH 540 0
DWIDTH 21 0
BBX 16 16 2 2
BITMAP
0703
0707
0E0F
1C0E
3C1C
3838
7078
E070
F070
7078
3838
3C1C
1C0E
0E0F
0707
0703
ENDCHAR
STARTCHAR 00AE
ENCODING 174
SWIDTH 822 0
DWIDTH 32 0
BBX 28 27 2 1
BITMAP
003FC000
00E07000
03000C00
04000600
08000300
10000180
20FF80C0
20FFE040
40E07060
40E03020
C0E03020
80E03030
80E06030
80FFE030
80FF0030
80E18020
C0E1C020
40E0E020
40E07060
60E03040
200000C0
10000180
08000300
06000600
03000C00
01E07000
003F8000
ENDCHAR
STARTCHAR 00AF
ENCODING 175
SWIDTH 488 0
DWIDTH 19 0
BBX 13 3 3 23
BITMAP
FFF8
FFF8
FFF8
ENDCHAR
STARTCHAR 00B0
ENCODING 176
SWIDTH 462 0
DWIDTH 18 0
BBX 12 12 3 16
BITMAP
1F00
3FC0
70E0
E060
C070
C070
C070
C060
E060
71C0
3F80
0E00
ENDCHAR
STARTCHAR 00B1
ENCODING 177
SWIDTH 591 0
DWIDTH 23 0
BBX 19 27 2 1
BITMAP
03F800
0FFE00
3FFF00
7C0780
F003C0
6001C0
0001C0
0001C0
0001C0
0003C0
000380
000F00
03FE00
03FE00
03FF00
000780
0001C0
0001E0
0000E0
0000E0
0000E0
6001E0
F001C0
7C07C0
3FFF80
0FFE00
03F800
ENDCHAR
STARTCHAR 00B4
ENCODING 180
SWIDTH 488 0
DWIDTH 19 0
BBX 6 6 7 23
BITMAP
10
1C
3C
78
70
E0
ENDCHAR
STARTCHAR 00B5
ENCODING 181
SWIDTH 848 0
DWIDTH 33 0
BBX 28 30 3 -3
BITMAP
007F8000
01FFF000
07FFF800
0F807E00
1E001F00
3C000F00
38000780
700003C0
700001C0
E00001C0
E00001E0
E00001E0
E00000E0
E00000E0
E00000E0
E00000E0
E00001C0
F00001C0
700001C0
78000380
78000780
3C000F00
1E001E00
0F807C00
07FFFE00
01FFFF00
007F8F80
000007C0
000003E0
000001F0
ENDCHAR
STARTCHAR 00B6
ENCODING 182
SWIDTH 514 0
DWIDTH 20 0
BBX 14 27 2 1
BITMAP
03FC
0FFC
3FFC
7FFC
7FFC
FFFC
FFFC
FFFC
FFFC
FFFC
FFFC
FFFC
7FFC
3FFC
1FFC
0FFC
01FC
001C
001C
001C
001C
001C
001C
001C
001C
001C
001C
ENDCHAR
STARTCHAR 00B7
ENCODING 183
SWIDTH 257 0
DWIDTH 10 0
BBX 3 4 3 9
BITMAP
E0
E0
E0
E0
ENDCHAR
STARTCHAR 00B8
ENCODING 184
SWIDTH 488 0
DWIDTH 19 0
BBX 5 6 6 -5
BITMAP
18
38
70
70
E0
60
ENDCHAR
STARTCHAR 00BA
ENCODING 186
SWIDTH 385 0
DWIDTH 15 0
BBX 11 16 2 11
BITMAP
1F00
3F80
61C0
C0E0
C060
C060
C060
C060
E0C0
7BC0
3F80
0000
0000
0000
FFE0
FFE0
ENDCHAR
STARTCHAR 00BB
ENCODING 187
SWIDTH 540 0
DWIDTH 21 0
BBX 16 16 3 2
BITMAP
C0E0
E0E0
F070
7038
383C
1C1C
1E0E
0E0F
0E07
1E0E
1C1C
383C
7038
F070
E0E0
C0E0
ENDCHAR
STARTCHAR 00BF
ENCODING 191
SWIDTH 540 0
DWIDTH 21 0
BBX 17 27 2 1
BITMAP
01E000
01E000
01E000
01E000
000000
000000
000000
000000
00C000
00C000
00C000
00C000
07E000
1FE000
3E0000
780000
F00000
E00000
E00000
E00000
E00000
E00100
F00380
780F00
3FFE00
1FFC00
07F000
ENDCHAR
STARTCHAR 00C0
ENCODING 192
SWIDTH 797 0
DWIDTH 31 0
BBX 26 35 2 0
BITMAP
00200000
00E00000
00F00000
00780000
00380000
000C0000
00000000
00000000
001E0000
001E0000
001F0000
003F0000
003F8000
00738000
00738000
00E1C000
00E1C000
01C0E000
01C0E000
03807000
03807000
03807800
07003800
07003800
0E001C00
0FFFFC00
1FFFFE00
1FFFFE00
38000700
38000700
38000780
70000380
700003C0
E00001C0
E00001C0
ENDCHAR
STARTCHAR 00C1
ENCODING 193
SWIDTH 797 0
DWIDTH 31 0
BBX 26 35 2 0
BITMAP
00010000
0001C000
0003C000
00078000
00070000
000E0000
00000000
00000000
001E0000
001E0000
001F0000
003F0000
003F8000
00738000
00738000
00E1C000
00E1C000
01C0E000
01C0E000
03807000
03807000
03807800
07003800
07003800
0E001C00
0FFFFC00
1FFFFE00
1FFFFE00
38000700
38000700
38000780
70000380
700003C0
E00001C0
E00001C0
ENDCHAR
STARTCHAR 00C2
ENCODING 194
SWIDTH 797 0
DWIDTH 31 0
BBX 26 34 2 1
BITMAP
001E0000
003F0000
003F8000
00738000
00E1C000
00000000
00000000
001E0000
001E0000
001F0000
003F0000
003F8000
00738000
00738000
00E1C000
00E1C000
01C0E000
01C0E000
03807000
03807000
03807800
07003800
07003800
0E001C00
0FFFFC00
1FFFFE00
1FFFFE00
38000700
38000700
38000780
70000380
700003C0
E00001C0
E00001C0
ENDCHAR
STARTCHAR 00C3
ENCODING 195
SWIDTH 797 0
DWIDTH 31 0
BBX 26 34 2 0
BITMAP
00006000
00FC6000
00FFE000
01CFC000
01838000
00000000
00000000
001E0000
001E0000
001F0000
003F0000
003F8000
00738000
00738000
00E1C000
00E1C000
01C0E000
01C0E000
03807000
03807000
03807800
07003800
07003800
0E001C00
0FFFFC00
1FFFFE00
1FFFFE00
38000700
38000700
38000780
70000380
700003C0
E00001C0
E00001C0
ENDCHAR
STARTCHAR 00C4
ENCODING 196
SWIDTH 797 0
DWIDTH 31 0
BBX 26 33 2 0
BITMAP
00E1C000
00E1C000
00E1C000
00E1C000
00000000
00000000
001E0000
001E0000
001F0000
003F0000
003F8000
00738000
00738000
00E1C000
00E1C000
01C0E000
01C0E000
03807000
03807000
03807800
07003800
07003800
0E001C00
0FFFFC00
1FFFFE00
1FFFFE00
38000700
38000700
38000780
70000380
700003C0
E00001C0
E00001C0
ENDCHAR
STARTCHAR 00C5
ENCODING 197
SWIDTH 797 0
DWIDTH 31 0
BBX 26 33 2 1
BITMAP
001E0000
00330000
00618000
00618000
00618000
00330000
001F0000
001E0000
003F0000
003F0000
003F8000
00738000
00738000
00E1C000
00E1C000
01C0E000
01C0E000
03807000
03807000
03807800
07003800
07003800
0E001C00
0FFFFC00
1FFFFE00
1FFFFE00
38000700
38000700
38000780
70000380
700003C0
E00001C0
E00001C0
ENDCHAR
STARTCHAR 00C6
ENCODING 198
SWIDTH 1054 0
DWIDTH 41 0
BBX 37 27 1 1
BITMAP
0001FFFFF0
0003FFFFF0
0003FFFFF0
0007380000
0007380000
000E380000
000E380000
001C380000
0038380000
0038380000
0070380000
0070380000
00E03FFFE0
01E03FFFE0
01C03FFFE0
0380380000
0380380000
07FFF80000
07FFF80000
0FFFF80000
1E00380000
1C00380000
3800380000
3800380000
70003FFFF8
70003FFFF8
E0003FFFF8
ENDCHAR
STARTCHAR 00C7
ENCODING 199
SWIDTH 745 0
DWIDTH 29 0
BBX 24 32 3 -5
BITMAP
007F80
01FFF0
07FFFC
0F807E
1E001E
3C000C
380000
700000
700000
E00000
E00000
E00000
E00000
E00000
E00000
E00000
E00000
E00000
F00000
700000
780000
3C0006
1E001F
0F803E
07FFF8
03FFF0
007F80
001800
003800
007000
007000
007000
ENDCHAR
STARTCHAR 00C8
ENCODING 200
SWIDTH 668 0
DWIDTH 26 0
BBX 19 35 4 1
BITMAP
010000
078000
038000
01C000
00E000
006000
000000
000000
FFFFE0
FFFFE0
FFFFE0
E00000
E00000
E00000
E00000
E00000
E00000
E00000
E00000
E00000
FFFF80
FFFF80
FFFF80
E00000
E00000
E00000
E00000
E00000
E00000
E00000
E00000
E00000
FFFFE0
FFFFE0
FFFFE0
ENDCHAR
STARTCHAR 00C9
ENCODING 201
SWIDTH 668 0
DWIDTH 26 0
BBX 19 35 4 1
BITMAP
001000
003C00
007800
007000
00E000
01C000
000000
000000
FFFFE0
FFFFE0
FFFFE0
E00000
E00000
E00000
E00000
E00000
E00000
E00000
E00000
E00000
FFFF80
FFFF80
FFFF80
E00000
E00000
E00000
E00000
E00000
E00000
E00000
E00000
E00000
FFFFE0
FFFFE0
FFFFE0
ENDCHAR
STARTCHAR 00CA
ENCODING 202
SWIDTH 668 0
DWIDTH 26 0
BBX 19 35 4 0
BITMAP
00E000
01E000
03F000
03B800
071C00
0C0E00
000000
000000
FFFFE0
FFFFE0
FFFFE0
E00000
E00000
E00000
E00000
E00000
E00000
E00000
E00000
E00000
FFFF80
FFFF80
FFFF80
E00000
E00000
E00000
E00000
E00000
E00000
E00000
E00000
E00000
FFFFE0
FFFFE0
FFFFE0
ENDCHAR
STARTCHAR 00CB
ENCODING 203
SWIDTH 668 0
DWIDTH 26 0
BBX 19 33 4 1
BITMAP
0F1C00
0F1C00
0F1C00
0F1C00
000000
000000
FFFFE0
FFFFE0
FFFFE0
E00000
E00000
E00000
E00000
E00000
E00000
E00000
E00000
E00000
FFFF80
FFFF80
FFFF80
E00000
E00000
E00000
E00000
E00000
E00000
E00000
E00000
E00000
FFFFE0
FFFFE0
FFFFE0
ENDCHAR
STARTCHAR 00CC
ENCODING 204
SWIDTH 282 0
DWIDTH 11 0
BBX 7 35 0 1
BITMAP
20
F0
78
38
1C
0E
00
00
0E
0E
0E
0E
0E
0E
0E
0E
0E
0E
0E
0E
0E
0E
0E
0E
0E
0E
0E
0E
0E
0E
0E
0E
0E
0E
0E
ENDCHAR
STARTCHAR 00CD
ENCODING 205
SWIDTH 282 0
DWIDTH 11 0
BBX 7 35 4 1
BITMAP
08
1E
3C
38
70
E0
00
00
E0
E0
E0
E0
E0
E0
E0
E0
E0
E0
E0
E0
E0
E0
E0
E0
E0
E0
E0
E0
E0
E0
E0
E0
E0
E0
E0
ENDCHAR
STARTCHAR 00CE
ENCODING 206
SWIDTH 282 0
DWIDTH 11 0
BBX 11 35 0 0
BITMAP
0E00
1F00
1F00
3B80
71C0
E0E0
0000
0000
0E00
0E00
0E00
0E00
0E00
0E00
0E00
0E00
0E00
0E00
0E00
0E00
0E00
0E00
0E00
0E00
0E00
0E00
0E00
0E00
0E00
0E00
0E00
0E00
0E00
0E00
0E00
ENDCHAR
STARTCHAR 00CF
ENCODING 207
SWIDTH 282 0
DWIDTH 11 0
BBX 11 33 0 1
BITMAP
F1E0
F1E0
F1E0
F1E0
0000
0000
0E00
0E00
0E00
0E00
0E00
0E00
0E00
0E00
0E00
0E00
0E00
0E00
0E00
0E00
0E00
0E00
0E00
0E00
0E00
0E00
0E00
0E00
0E00
0E00
0E00
0E00
0E00
ENDCHAR
STARTCHAR 00D0
ENCODING 208
SWIDTH 822 0
DWIDTH 32 0
BBX 26 27 2 1
BITMAP
1FFF8000
1FFFE000
1FFFF800
1C00FC00
1C003E00
1C000F00
1C000780
1C000380
1C0003C0
1C0001C0
1C0001C0
1C0001C0
FFFC01C0
FFFC01C0
FFFC01C0
1C0001C0
1C0001C0
1C0001C0
1C000380
1C000380
1C000700
1C000F00
1C003E00
1C00FC00
1FFFF800
1FFFE000
1FFF0000
ENDCHAR
STARTCHAR 00D1
ENCODING 209
SWIDTH 797 0
DWIDTH 31 0
BBX 22 34 4 0
BITMAP
008180
03F180
07FF80
063F00
060400
000000
000000
E0001C
F0001C
F8001C
F8001C
FC001C
FE001C
EF001C
E7001C
E3801C
E3C01C
E1E01C
E0F01C
E0701C
E0781C
E03C1C
E01E1C
E00E1C
E0071C
E0079C
E003DC
E001FC
E000FC
E000FC
E0007C
E0003C
E0001C
E0000C
ENDCHAR
STARTCHAR 00D2
ENCODING 210
SWIDTH 848 0
DWIDTH 33 0
BBX 27 35 3 0
BITMAP
00200000
00E00000
00F00000
00780000
00380000
001C0000
00000000
00000000
007F8000
01FFF000
07FFF800
0F807E00
1E001F00
3C000F00
38000780
700003C0
700001C0
E00001C0
E00001E0
E00001E0
E00000E0
E00000E0
E00000E0
E00000E0
E00001C0
F00001C0
700001C0
78000380
78000780
3C000F00
1E001E00
0F807C00
07FFF800
01FFE000
007F8000
ENDCHAR
STARTCHAR 00D3
ENCODING 211
SWIDTH 848 0
DWIDTH 33 0
BBX 27 34 3 1
BITMAP
0001C000
0003C000
00038000
00070000
00060000
00000000
00000000
007F8000
01FFF000
07FFF800
0F807E00
1E001F00
3C000F00
38000780
700003C0
700001C0
E00001C0
E00001E0
E00001E0
E00000E0
E00000E0
E00000E0
E00000E0
E00001C0
F00001C0
700001C0
78000380
78000780
3C000F00
1E001E00
0F807C00
07FFF800
01FFE000
007F8000
ENDCHAR
STARTCHAR 00D4
ENCODING 212
SWIDTH 848 0
DWIDTH 33 0
BBX 27 34 3 1
BITMAP
001E0000
001F0000
003F8000
00738000
00E1C000
00000000
00000000
007F8000
01FFF000
07FFF800
0F807E00
1E001F00
3C000F00
38000780
700003C0
700001C0
E00001C0
E00001E0
E00001E0
E00000E0
E00000E0
E00000E0
E00000E0
E00001C0
F00001C0
700001C0
78000380
78000780
3C000F00
1E001E00
0F807C00
07FFF800
01FFE000
007F8000
ENDCHAR
STARTCHAR 00D5
ENCODING 213
SWIDTH 848 0
DWIDTH 33 0
BBX 27 33 3 1
BITMAP
00786000
00FFE000
01FFC000
0183C000
00000000
00000000
007F8000
01FFF000
07FFF800
0F807E00
1E001F00
3C000F00
38000780
700003C0
700001C0
E00001C0
E00001E0
E00001E0
E00000E0
E00000E0
E00000E0
E00000E0
E00001C0
F00001C0
700001C0
78000380
78000780
3C000F00
1E001E00
0F807C00
07FFF800
01FFE000
007F8000
ENDCHAR
STARTCHAR 00D6
ENCODING 214
SWIDTH 848 0
DWIDTH 33 0
BBX 27 33 3 0
BITMAP
00F1C000
00F1C000
00F1C000
00F1C000
00000000
00000000
007F8000
01FFF000
07FFF800
0F807E00
1E001F00
3C000F00
38000780
700003C0
700001C0
E00001C0
E00001E0
E00001E0
E00000E0
E00000E0
E00000E0
E00000E0
E00001C0
F00001C0
700001C0
78000380
78000780
3C000F00
1E001E00
0F807C00
07FFF800
01FFE000
007F8000
ENDCHAR
STARTCHAR 00D8
ENCODING 216
SWIDTH 848 0
DWIDTH 33 0
BBX 27 27 3 1
BITMAP
007F81E0
01FFF1C0
07F3FF80
0F003F00
1E001F00
3C001F80
38003F80
700073C0
7000E1C0
E001C1C0
E00381E0
E00780E0
E00700E0
E00E00E0
E01C00E0
E03800E0
E07001C0
E0E001C0
F1C001C0
73800380
7F000380
3E000700
1E000E00
3F803C00
3FFBF800
71FFE000
E07F8000
ENDCHAR
STARTCHAR 00D9
ENCODING 217
SWIDTH 771 0
DWIDTH 30 0
BBX 23 35 3 0
BITMAP
008000
03C000
01E000
00E000
007000
003800
000000
000000
E0000E
E0000E
E0000E
E0000E
E0000E
E0000E
E0000E
E0000E
E0000E
E0000E
E0000E
E0000E
E0000E
E0000E
E0000E
E0000E
E0000E
70001C
70001C
70001C
78001C
380038
3C0078
1F01F0
0FFFE0
07FFC0
00FE00
ENDCHAR
STARTCHAR 00DA
ENCODING 218
SWIDTH 771 0
DWIDTH 30 0
BBX 23 35 3 0
BITMAP
000400
000780
000F00
000E00
001C00
003800
000000
000000
E0000E
E0000E
E0000E
E0000E
E0000E
E0000E
E0000E
E0000E
E0000E
E0000E
E0000E
E0000E
E0000E
E0000E
E0000E
E0000E
E0000E
70001C
70001C
70001C
78001C
380038
3C0078
1F01F0
0FFFE0
07FFC0
00FE00
ENDCHAR
STARTCHAR 00DB
ENCODING 219
SWIDTH 771 0
DWIDTH 30 0
BBX 23 34 3 1
BITMAP
007800
007C00
00EE00
01C700
038380
000000
000000
E0000E
E0000E
E0000E
E0000E
E0000E
E0000E
E0000E
E0000E
E0000E
E0000E
E0000E
E0000E
E0000E
E0000E
E0000E
E0000E
E0000E
70001C
70001C
70001C
78001C
380038
3C0078
1F01F0
0FFFE0
07FFC0
00FE00
ENDCHAR
STARTCHAR 00DC
ENCODING 220
SWIDTH 771 0
DWIDTH 30 0
BBX 23 33 3 0
BITMAP
03C780
03C780
03C780
03C780
000000
000000
E0000E
E0000E
E0000E
E0000E
E0000E
E0000E
E0000E
E0000E
E0000E
E0000E
E0000E
E0000E
E0000E
E0000E
E0000E
E0000E
E0000E
70001C
70001C
70001C
78001C
380038
3C0078
1F01F0
0FFFE0
07FFC0
00FE00
ENDCHAR
STARTCHAR 00DD
ENCODING 221
SWIDTH 720 0
DWIDTH 28 0
BBX 25 35 1 0
BITMAP
00010000
0003C000
00038000
00070000
000E0000
000C0000
00000000
00000000
F0000780
78000700
38000F00
3C001E00
1E001C00
0E003800
0F007800
07807000
0380E000
03C1E000
01E1C000
00E38000
00778000
007F0000
003E0000
001E0000
001C0000
001C0000
001C0000
001C0000
001C0000
001C0000
001C0000
001C0000
001C0000
001C0000
001C0000
ENDCHAR
STARTCHAR 00DE
ENCODING 222
SWIDTH 668 0
DWIDTH 26 0
BBX 20 27 4 1
BITMAP
E00000
E00000
E00000
E00000
E00000
FFFE00
FFFF80
E03FC0
E003E0
E001E0
E000E0
E000F0
E00070
E00070
E00070
E000E0
E000E0
E001E0
E007C0
FFFF80
FFFF00
FFF800
E00000
E00000
E00000
E00000
E00000
ENDCHAR
STARTCHAR 00DF
ENCODING 223
SWIDTH 617 0
DWIDTH 24 0
BBX 18 28 3 1
BITMAP
07F800
1FFE00
3E1F00
380F00
700780
700380
E00380
E00380
E00780
E00700
E00F00
E01E00
E07800
E0F000
E0FC00
E03F00
E00780
E003C0
E001C0
E001C0
E001C0
E001C0
E001C0
E003C0
E00780
E07F00
E0FE00
E0F000
ENDCHAR
STARTCHAR 00E0
ENCODING 224
SWIDTH 591 0
DWIDTH 23 0
BBX 17 28 2 1
BITMAP
060000
0F0000
078000
038000
01C000
000000
000000
000000
07F000
3FFC00
3FFE00
300F00
000780
000380
000380
000380
0FFF80
3FFF80
780780
F00380
E00380
E00380
E00380
E00780
F00F80
781F80
3FFB80
0FC380
ENDCHAR
STARTCHAR 00E1
ENCODING 225
SWIDTH 591 0
DWIDTH 23 0
BBX 17 28 2 1
BITMAP
001800
003C00
007800
007000
00E000
000000
000000
000000
07F000
3FFC00
3FFE00
300F00
000780
000380
000380
000380
0FFF80
3FFF80
780780
F00380
E00380
E00380
E00380
E00780
F00F80
781F80
3FFB80
0FC380
ENDCHAR
STARTCHAR 00E2
ENCODING 226
SWIDTH 591 0
DWIDTH 23 0
BBX 17 28 2 0
BITMAP
00E000
01E000
03F000
073800
0E1C00
000000
000000
000000
07F000
3FFC00
3FFE00
300F00
000780
000380
000380
000380
0FFF80
3FFF80
780780
F00380
E00380
E00380
E00380
E00780
F00F80
781F80
3FFB80
0FC380
ENDCHAR
STARTCHAR 00E3
ENCODING 227
SWIDTH 591 0
DWIDTH 23 0
BBX 17 27 2 1
BITMAP
078600
0FEE00
1FFE00
187C00
080000
000000
000000
07F000
3FFC00
3FFE00
300F00
000780
000380
000380
000380
0FFF80
3FFF80
780780
F00380
E00380
E00380
E00380
E00780
F00F80
781F80
3FFB80
0FC380
ENDCHAR
STARTCHAR 00E4
ENCODING 228
SWIDTH 591 0
DWIDTH 23 0
BBX 17 26 2 1
BITMAP
0E1C00
0E1C00
0E1C00
000000
000000
000000
07F000
3FFC00
3FFE00
300F00
000780
000380
000380
000380
0FFF80
3FFF80
780780
F00380
E00380
E00380
E00380
E00780
F00F80
781F80
3FFB80
0FC380
ENDCHAR
STARTCHAR 00E5
ENCODING 229
SWIDTH 591 0
DWIDTH 23 0
BBX 17 30 2 1
BITMAP
01F000
033800
061800
061800
061800
033000
01F000
000000
000000
000000
07F000
3FFC00
3FFE00
300F00
000780
000380
000380
000380
0FFF80
3FFF80
780780
F00380
E00380
E00380
E00380
E00780
F00F80
781F80
3FFB80
0FC380
ENDCHAR
STARTCHAR 00E6
ENCODING 230
SWIDTH 951 0
DWIDTH 37 0
BBX 32 20 2 0
BITMAP
07F007C0
3FFC3FF0
3FFE7C7C
300FF01E
0007E00E
0007C007
00038007
00038007
0FFF8007
3FFFFFFF
7803FFFF
F0038000
E0038000
E003C000
E003C000
E007E006
F00EF00F
7E7C7FFE
3FF83FF8
0FC007E0
ENDCHAR
STARTCHAR 00E7
ENCODING 231
SWIDTH 565 0
DWIDTH 22 0
BBX 18 25 2 -6
BITMAP
01F800
07FF00
0FFF80
1E03C0
380180
700000
700000
F00000
E00000
E00000
E00000
E00000
F00000
700000
700000
380080
3E03C0
1FDF80
07FF00
01FC00
00C000
01C000
01C000
038000
038000
ENDCHAR
STARTCHAR 00E8
ENCODING 232
SWIDTH 591 0
DWIDTH 23 0
BBX 19 28 2 1
BITMAP
030000
0F0000
078000
03C000
00C000
000000
000000
000000
01F800
07FE00
1FBF00
3C0780
380380
7001C0
7001C0
E001C0
E000E0
FFFFE0
FFFFE0
E00000
E00000
700000
700000
380180
3C03C0
1FFF80
07FE00
01F800
ENDCHAR
STARTCHAR 00E9
ENCODING 233
SWIDTH 591 0
DWIDTH 23 0
BBX 19 28 2 1
BITMAP
001800
003C00
003800
007000
00E000
000000
000000
000000
01F800
07FE00
1FBF00
3C0780
380380
7001C0
7001C0
E001C0
E000E0
FFFFE0
FFFFE0
E00000
E00000
700000
700000
380180
3C03C0
1FFF80
07FE00
01F800
ENDCHAR
STARTCHAR 00EA
ENCODING 234
SWIDTH 591 0
DWIDTH 23 0
BBX 19 28 2 0
BITMAP
00E000
01F000
03F000
03B800
071C00
000000
000000
000000
01F800
07FE00
1FBF00
3C0780
380380
7001C0
7001C0
E001C0
E000E0
FFFFE0
FFFFE0
E00000
E00000
700000
700000
380180
3C03C0
1FFF80
07FE00
01F800
ENDCHAR
STARTCHAR 00EB
ENCODING 235
SWIDTH 591 0
DWIDTH 23 0
BBX 19 26 2 1
BITMAP
0F1C00
0F1C00
0F1C00
000000
000000
000000
01F800
07FE00
1FBF00
3C0780
380380
7001C0
7001C0
E001C0
E000E0
FFFFE0
FFFFE0
E00000
E00000
700000
700000
380180
3C03C0
1FFF80
07FE00
01F800
ENDCHAR
STARTCHAR 00EC
ENCODING 236
SWIDTH 257 0
DWIDTH 10 0
BBX 6 29 0 0
BITMAP
20
E0
F0
78
38
1C
00
00
00
0C
0C
0C
0C
0C
0C
0C
0C
0C
0C
0C
0C
0C
0C
0C
0C
0C
0C
0C
0C
ENDCHAR
STARTCHAR 00ED
ENCODING 237
SWIDTH 257 0
DWIDTH 10 0
BBX 6 29 4 0
BITMAP
10
1C
3C
78
70
E0
00
00
00
C0
C0
C0
C0
C0
C0
C0
C0
C0
C0
C0
C0
C0
C0
C0
C0
C0
C0
C0
C0
ENDCHAR
STARTCHAR 00EE
ENCODING 238
SWIDTH 257 0
DWIDTH 10 0
BBX 10 28 0 1
BITMAP
1E00
3F00
3F00
7380
E1C0
0000
0000
0000
0C00
0C00
0C00
0C00
0C00
0C00
0C00
0C00
0C00
0C00
0C00
0C00
0C00
0C00
0C00
0C00
0C00
0C00
0C00
0C00
ENDCHAR
STARTCHAR 00EF
ENCODING 239
SWIDTH 257 0
DWIDTH 10 0
BBX 10 27 0 0
BITMAP
E1C0
E1C0
E1C0
E1C0
0000
0000
0000
0C00
0C00
0C00
0C00
0C00
0C00
0C00
0C00
0C00
0C00
0C00
0C00
0C00
0C00
0C00
0C00
0C00
0C00
0C00
0C00
ENDCHAR
STARTCHAR 00F0
ENCODING 240
SWIDTH 642 0
DWIDTH 25 0
BBX 20 28 2 1
BITMAP
00E700
00FF00
007C00
01F800
07FC00
071E00
040E00
000700
000780
03F380
0FFDC0
1F1FC0
3C03E0
7801E0
7000F0
F000F0
E00070
E00070
E00070
E00070
E00070
7000E0
7000E0
3801C0
3E03C0
1FFF80
07FE00
01F800
ENDCHAR
STARTCHAR 00F1
ENCODING 241
SWIDTH 617 0
DWIDTH 24 0
BBX 18 27 3 1
BITMAP
070600
0FEE00
1FFC00
187C00
080000
000000
000000
E1F800
E7FE00
EF3F00
FC0780
F80380
F00380
F00380
E001C0
E001C0
E001C0
E001C0
E001C0
E001C0
E001C0
E001C0
E001C0
E001C0
E001C0
E001C0
E001C0
ENDCHAR
STARTCHAR 00F2
ENCODING 242
SWIDTH 642 0
DWIDTH 25 0
BBX 21 28 2 1
BITMAP
030000
078000
03C000
01C000
00E000
000000
000000
000000
01FC00
07FF00
0FFF80
1E03C0
3801E0
7000F0
700070
E00070
E00078
E00038
E00038
E00070
F00070
700070
7800F0
3801E0
3E03C0
1FFF80
07FF00
01F800
ENDCHAR
STARTCHAR 00F3
ENCODING 243
SWIDTH 642 0
DWIDTH 25 0
BBX 21 28 2 1
BITMAP
000C00
000F00
001E00
003C00
003800
000000
000000
000000
01FC00
07FF00
0FFF80
1E03C0
3801E0
7000F0
700070
E00070
E00078
E00038
E00038
E00070
F00070
700070
7800F0
3801E0
3E03C0
1FFF80
07FF00
01F800
ENDCHAR
STARTCHAR 00F4
ENCODING 244
SWIDTH 642 0
DWIDTH 25 0
BBX 21 28 2 0
BITMAP
007000
00F800
01F800
01DC00
030E00
000000
000000
000000
01FC00
07FF00
0FFF80
1E03C0
3801E0
7000F0
700070
E00070
E00078
E00038
E00038
E00070
F00070
700070
7800F0
3801E0
3E03C0
1FFF80
07FF00
01F800
ENDCHAR
STARTCHAR 00F5
ENCODING 245
SWIDTH 642 0
DWIDTH 25 0
BBX 21 27 2 1
BITMAP
03C300
07F700
07FF00
0C3E00
040000
000000
000000
01FC00
07FF00
0FFF80
1E03C0
3801E0
7000F0
700070
E00070
E00078
E00038
E00038
E00070
F00070
700070
7800F0
3801E0
3E03C0
1FFF80
07FF00
01F800
ENDCHAR
STARTCHAR 00F6
ENCODING 246
SWIDTH 642 0
DWIDTH 25 0
BBX 21 26 2 1
BITMAP
078E00
078E00
078E00
000000
000000
000000
01FC00
07FF00
0FFF80
1E03C0
3801E0
7000F0
700070
E00070
E00078
E00038
E00038
E00070
F00070
700070
7800F0
3801E0
3E03C0
1FFF80
07FF00
01F800
ENDCHAR
STARTCHAR 00F8
ENCODING 248
SWIDTH 642 0
DWIDTH 25 0
BBX 21 20 2 0
BITMAP
01FC38
07FF70
0F9FE0
1C03C0
3803E0
7007F0
700E70
E01C70
E03878
E07038
E0E038
E0C030
E18070
730070
7600E0
3E00E0
3C03C0
3F8F80
77FF00
E1F800
ENDCHAR
STARTCHAR 00F9
ENCODING 249
SWIDTH 617 0
DWIDTH 24 0
BBX 17 28 3 1
BITMAP
060000
0F0000
070000
038000
01C000
000000
000000
000000
E00380
E00380
E00380
E00380
E00380
E00380
E00380
E00380
E00380
E00380
E00380
E00380
E00380
E00380
E00380
700780
780F80
3E7B80
1FF380
07C380
ENDCHAR
STARTCHAR 00FA
ENCODING 250
SWIDTH 617 0
DWIDTH 24 0
BBX 17 28 3 1
BITMAP
003800
003800
007000
00E000
00C000
000000
000000
000000
E00380
E00380
E00380
E00380
E00380
E00380
E00380
E00380
E00380
E00380
E00380
E00380
E00380
E00380
E00380
700780
780F80
3E7B80
1FF380
07C380
ENDCHAR
STARTCHAR 00FB
ENCODING 251
SWIDTH 617 0
DWIDTH 24 0
BBX 17 28 3 1
BITMAP
01E000
03E000
07F000
073800
0C1C00
000000
000000
000000
E00380
E00380
E00380
E00380
E00380
E00380
E00380
E00380
E00380
E00380
E00380
E00380
E00380
E00380
E00380
700780
780F80
3E7B80
1FF380
07C380
ENDCHAR
STARTCHAR 00FC
ENCODING 252
SWIDTH 617 0
DWIDTH 24 0
BBX 17 27 3 0
BITMAP
0E3C00
0E3C00
0E3C00
0E3C00
000000
000000
000000
E00380
E00380
E00380
E00380
E00380
E00380
E00380
E00380
E00380
E00380
E00380
E00380
E00380
E00380
E00380
700780
780F80
3E7B80
1FF380
07C380
ENDCHAR
STARTCHAR 00FD
ENCODING 253
SWIDTH 591 0
DWIDTH 23 0
BBX 20 34 1 -6
BITMAP
000E00
000E00
001C00
003800
003000
000000
000000
000000
F00070
7000F0
7800E0
3800E0
3801C0
1C01C0
1C01C0
0E0380
0E0380
070700
070700
070700
038E00
038E00
01CC00
01DC00
00FC00
00F800
007800
007000
007000
007000
00E000
21C000
3FC000
7F0000
ENDCHAR
STARTCHAR 00FE
ENCODING 254
SWIDTH 668 0
DWIDTH 26 0
BBX 20 34 3 -5
BITMAP
E00000
E00000
E00000
E00000
E00000
E00000
E00000
E00000
E0FC00
E3FF00
E7FF80
EE03C0
F801E0
F800E0
F000F0
F00070
E00070
E00070
E00070
E00070
F00070
F00070
F800E0
F801E0
EE03C0
E7FF80
E3FF00
E0FC00
E00000
E00000
E00000
E00000
E00000
E00000
ENDCHAR
STARTCHAR 00FF
ENCODING 255
SWIDTH 591 0
DWIDTH 23 0
BBX 20 33 1 -7
BITMAP
078E00
078E00
078E00
078E00
000000
000000
000000
F00070
7000F0
7800E0
3800E0
3801C0
1C01C0
1C01C0
0E0380
0E0380
070700
070700
070700
038E00
038E00
01CC00
01DC00
00FC00
00F800
007800
007000
007000
007000
00E000
21C000
3FC000
7F0000
ENDCHAR
STARTCHAR 0131
ENCODING 305
SWIDTH 257 0
DWIDTH 10 0
BBX 2 20 4 0
BITMAP
C0
C0
C0
C0
C0
C0
C0
C0
C0
C0
C0
C0
C0
C0
C0
C0
C0
C0
C0
C0
ENDCHAR
STARTCHAR 0141
ENCODING 321
SWIDTH 642 0
DWIDTH 25 0
BBX 21 27 2 1
BITMAP
1C0000
1C0000
1C0000
1C0000
1C0000
1C0000
1C0000
1C0000
1C0000
1C0400
1C7C00
1FFC00
1FF000
FF8000
FC0000
DC0000
1C0000
1C0000
1C0000
1C0000
1C0000
1C0000
1C0000
1C0000
1FFFF8
1FFFF8
1FFFF8
ENDCHAR
STARTCHAR 0142
ENCODING 322
SWIDTH 334 0
DWIDTH 13 0
BBX 9 28 2 1
BITMAP
1C00
1C00
1C00
1C00
1C00
1C00
1C00
1C00
1C00
1C00
1C00
1D80
1F80
FF80
FC00
FC00
1C00
1C00
1C00
1C00
1C00
1C00
1C00
1C00
1C00
1C00
1C00
1C00
ENDCHAR
STARTCHAR 0152
ENCODING 338
SWIDTH 1131 0
DWIDTH 44 0
BBX 38 27 3 1
BITMAP
003FFFFFFC
01FFFFFFFC
07FFFFFFFC
0F801C0000
1E001C0000
3C001C0000
38001C0000
70001C0000
70001C0000
E0001C0000
E0001C0000
E0001C0000
E0001FFFF0
E0001FFFF0
E0001FFFF0
E0001C0000
E0001C0000
F0001C0000
70001C0000
78001C0000
78001C0000
3C001C0000
1F001C0000
0FC01C0000
07FFFFFFFC
01FFFFFFFC
003FFFFFFC
ENDCHAR
STARTCHAR 0153
ENCODING 339
SWIDTH 1054 0
DWIDTH 41 0
BBX 36 20 2 0
BITMAP
01F800FC00
07FF03FF00
0FFF87FF80
1E03CE03C0
3801FC01E0
7000FC00E0
7000780070
E000780070
E000780070
E0007FFFF0
E0007FFFF0
E000780000
F000780000
7000780000
7800FC0000
3801DE0040
3E03CF01E0
1FFF87FFC0
07FE03FF80
01F800FE00
ENDCHAR
STARTCHAR 0160
ENCODING 352
SWIDTH 642 0
DWIDTH 25 0
BBX 20 34 2 1
BITMAP
070600
039C00
01FC00
00F800
007000
000000
000000
03FC00
0FFF80
1FFFC0
3C03E0
3800C0
700000
700000
700000
700000
780000
3C0000
1F8000
0FF800
03FF00
007FC0
0007E0
0001E0
0000F0
000070
000070
000070
600070
F800E0
7E01E0
3FFFC0
0FFF80
01FC00
ENDCHAR
STARTCHAR 0161
ENCODING 353
SWIDTH 488 0
DWIDTH 19 0
BBX 15 28 2 0
BITMAP
3838
1C70
0EE0
07C0
03C0
0000
0000
0000
07E0
1FF8
3EFC
701C
7000
6000
7000
7800
3F00
1FE0
07F8
007C
001E
000E
000E
400E
F01C
FFFC
3FF8
0FE0
ENDCHAR
STARTCHAR 0178
ENCODING 376
SWIDTH 720 0
DWIDTH 28 0
BBX 25 33 1 0
BITMAP
00E3C000
00E3C000
00E3C000
00E3C000
00000000
00000000
F0000780
78000700
38000F00
3C001E00
1E001C00
0E003800
0F007800
07807000
0380E000
03C1E000
01E1C000
00E38000
00778000
007F0000
003E0000
001E0000
001C0000
001C0000
001C0000
001C0000
001C0000
001C0000
001C0000
001C0000
001C0000
001C0000
001C0000
ENDCHAR
STARTCHAR 017D
ENCODING 381
SWIDTH 694 0
DWIDTH 27 0
BBX 21 35 3 0
BITMAP
070700
038E00
01DC00
01F800
00F800
007000
000000
000000
FFFFF8
FFFFF8
FFFFF8
0000F0
0001E0
0001C0
000380
000780
000F00
000E00
001C00
003C00
007800
00F000
00E000
01C000
03C000
078000
070000
0E0000
1E0000
3C0000
780000
700000
FFFFF8
FFFFF8
FFFFF8
ENDCHAR
STARTCHAR 017E
ENCODING 382
SWIDTH 565 0
DWIDTH 22 0
BBX 17 28 2 1
BITMAP
0E1C00
073800
03F000
03E000
01E000
000000
000000
000000
7FFF80
7FFF80
7FFF80
000F00
000E00
001C00
003800
007800
00F000
01E000
01C000
038000
070000
0E0000
1E0000
3C0000
780000
7FFF80
FFFF80
FFFF80
ENDCHAR
STARTCHAR 0192
ENCODING 402
SWIDTH 514 0
DWIDTH 20 0
BBX 16 27 2 1
BITMAP
003F
007F
00FF
00E0
01E0
01C0
01C0
01C0
01C0
0380
3FFE
3FFE
3FFE
0380
0380
0700
0700
0700
0700
0700
0E00
0E00
0E00
1E00
FC00
FC00
F000
ENDCHAR
STARTCHAR 02C6
ENCODING 710
SWIDTH 488 0
DWIDTH 19 0
BBX 9 5 5 24
BITMAP
1C00
3E00
7700
E380
C180
ENDCHAR
STARTCHAR 02C7
ENCODING 711
SWIDTH 488 0
DWIDTH 19 0
BBX 9 5 5 24
BITMAP
C180
E380
7F00
3E00
1C00
ENDCHAR
STARTCHAR 02D8
ENCODING 728
SWIDTH 488 0
DWIDTH 19 0
BBX 11 5 4 23
BITMAP
C060
E0E0
7BC0
7FC0
1F00
ENDCHAR
STARTCHAR 02D9
ENCODING 729
SWIDTH 488 0
DWIDTH 19 0
BBX 3 4 8 23
BITMAP
E0
E0
E0
E0
ENDCHAR
STARTCHAR 02DA
ENCODING 730
SWIDTH 488 0
DWIDTH 19 0
BBX 7 8 6 22
BITMAP
10
7C
C6
82
82
C2
EE
3C
ENDCHAR
STARTCHAR 02DB
ENCODING 731
SWIDTH 488 0
DWIDTH 19 0
BBX 7 6 7 -6
BITMAP
E0
E0
E0
E0
78
3E
ENDCHAR
STARTCHAR 02DC
ENCODING 732
SWIDTH 488 0
DWIDTH 19 0
BBX 13 4 3 23
BITMAP
3C18
7FF0
7FF0
E1E0
ENDCHAR
STARTCHAR 02DD
ENCODING 733
SWIDTH 488 0
DWIDTH 19 0
BBX 11 5 4 24
BITMAP
38E0
78E0
71C0
E380
C300
ENDCHAR
STARTCHAR 03A9
ENCODING 937
SWIDTH 745 0
DWIDTH 29 0
BBX 26 28 2 1
BITMAP
07F01FC0
0FF03FC0
1F307CC0
1C007000
1C007000
3800E000
3800E000
3800E000
FFF3FFC0
FFF3FFC0
FFF3FFC0
3800E000
3800E000
3800E000
3800E000
3800E000
3800E000
3800E000
3800E000
3800E000
3800E000
3800E000
3800E000
3800E000
3800E000
3800E000
3800E000
3800E000
ENDCHAR
STARTCHAR 03C0
ENCODING 960
SWIDTH 822 0
DWIDTH 32 0
BBX 28 27 2 1
BITMAP
003FC000
00E07000
03000C00
04000600
08000300
10000180
207F80C0
207FE040
4060F060
40603020
C0603020
80603030
80607030
8061E030
807FC030
80600020
C0600020
40600020
40600060
60600040
200000C0
10000180
08000300
06000600
03000C00
01E07000
003F8000
ENDCHAR
STARTCHAR 2013
ENCODING 8211
SWIDTH 540 0
DWIDTH 21 0
BBX 16 3 2 11
BITMAP
FFFF
FFFF
FFFF
ENDCHAR
STARTCHAR 2014
ENCODING 8212
SWIDTH 900 0
DWIDTH 35 0
BBX 30 3 2 11
BITMAP
FFFFFFFC
FFFFFFFC
FFFFFFFC
ENDCHAR
STARTCHAR 2018
ENCODING 8216
SWIDTH 257 0
DWIDTH 10 0
BBX 4 9 3 19
BITMAP
30
60
C0
C0
E0
E0
E0
E0
E0
ENDCHAR
STARTCHAR 2019
ENCODING 8217
SWIDTH 257 0
DWIDTH 10 0
BBX 5 9 2 19
BITMAP
78
78
78
78
18
30
30
E0
80
ENDCHAR
STARTCHAR 201A
ENCODING 8218
SWIDTH 257 0
DWIDTH 10 0
BBX 4 9 2 -4
BITMAP
70
70
70
70
30
30
70
E0
80
ENDCHAR
STARTCHAR 201C
ENCODING 8220
SWIDTH 437 0
DWIDTH 17 0
BBX 12 9 3 19
BITMAP
3030
60E0
C0C0
C0C0
E1E0
E1E0
E1E0
E1E0
E1E0
ENDCHAR
STARTCHAR 201D
ENCODING 8221
SWIDTH 437 0
DWIDTH 17 0
BBX 12 9 2 19
BITMAP
7870
7870
7870
7870
1830
3030
3070
E0E0
8080
ENDCHAR
STARTCHAR 201E
ENCODING 8222
SWIDTH 437 0
DWIDTH 17 0
BBX 12 9 2 -4
BITMAP
7070
7070
7070
7070
3030
3030
7060
E1C0
8000
ENDCHAR
STARTCHAR 2020
ENCODING 8224
SWIDTH 411 0
DWIDTH 16 0
BBX 11 18 2 10
BITMAP
0600
0600
0600
0600
0600
FFE0
FFE0
0600
0600
0600
0600
0600
0600
0600
0600
0600
0600
0600
ENDCHAR
STARTCHAR 2021
ENCODING 8225
SWIDTH 437 0
DWIDTH 17 0
BBX 11 27 3 1
BITMAP
0C00
0C00
0C00
0C00
0C00
FFE0
FFE0
0C00
0C00
0C00
0C00
0C00
0C00
0C00
0C00
0C00
0C00
0C00
0C00
0C00
FFE0
FFE0
0C00
0C00
0C00
0C00
0C00
ENDCHAR
STARTCHAR 2022
ENCODING 8226
SWIDTH 488 0
DWIDTH 19 0
BBX 10 10 4 8
BITMAP
0C00
3F00
7F80
FFC0
FFC0
FFC0
FFC0
7FC0
7F80
3F00
ENDCHAR
STARTCHAR 2026
ENCODING 8230
SWIDTH 720 0
DWIDTH 28 0
BBX 22 4 3 1
BITMAP
E0703C
E0703C
E0703C
E0703C
ENDCHAR
STARTCHAR 2030
ENCODING 8240
SWIDTH 1208 0
DWIDTH 47 0
BBX 42 27 2 1
BITMAP
0F8003800000
3FC007000000
70E00E000000
60600C000000
E0701C000000
E07038000000
E03030000000
E03070000000
E070E0000000
6071C0000000
70E180000000
3FC380000000
1F8700000000
000600000000
000E1F807F00
001C7FC0FF80
003870E1C380
0030E06181C0
0070C07381C0
00E0C07380C0
01C0C07380C0
0180C07380C0
0380E06381C0
0700E061C180
060070C1C380
0E003FC0FF00
1C001F003C00
ENDCHAR
STARTCHAR 2039
ENCODING 8249
SWIDTH 334 0
DWIDTH 13 0
BBX 8 16 2 2
BITMAP
07
07
0E
1C
3C
38
70
E0
F0
70
38
3C
1C
0E
07
07
ENDCHAR
STARTCHAR 203A
ENCODING 8250
SWIDTH 334 0
DWIDTH 13 0
BBX 7 16 3 2
BITMAP
C0
E0
F0
70
38
1C
1E
0E
0E
1E
1C
38
70
F0
E0
C0
ENDCHAR
STARTCHAR 2044
ENCODING 8260
SWIDTH 437 0
DWIDTH 17 0
BBX 20 33 -2 -3
BITMAP
000070
0000E0
0000E0
0001C0
0001C0
000380
000300
000700
000E00
000E00
001C00
001C00
003800
003800
007000
007000
00E000
00E000
01C000
018000
038000
070000
070000
0E0000
0E0000
1C0000
1C0000
380000
380000
700000
700000
E00000
C00000
ENDCHAR
STARTCHAR 2122
ENCODING 8482
SWIDTH 694 0
DWIDTH 27 0
BBX 24 12 1 16
BITMAP
FF8C03
FF8E07
080E0F
080B0F
08099B
0809B3
0808F3
080863
080843
080803
080803
080803
ENDCHAR
STARTCHAR 221A
ENCODING 8730
SWIDTH 1002 0
DWIDTH 39 0
BBX 32 28 2 1
BITMAP
07F01FC3
0FF03FC3
1E107843
1C007003
1C007003
3800E003
3800E003
3800E003
FFF3FFC3
FFF3FFC3
FFF3FFC3
3800E003
3800E003
3800E003
3800E003
3800E003
3800E003
3800E003
3800E003
3800E003
3800E003
3800E003
3800E003
3800E003
3800E003
3800E003
3800E003
3800E003
ENDCHAR
STARTCHAR 2248
ENCODING 8776
SWIDTH 1002 0
DWIDTH 39 0
BBX 33 28 2 1
BITMAP
07F01FC000
0FF03FC780
1F307CC780
1C00700780
1C00700000
3800E00000
3800E00000
3800E00000
FFF3FFC300
FFF3FFC300
FFF3FFC300
3800E00300
3800E00300
3800E00300
3800E00300
3800E00300
3800E00300
3800E00300
3800E00300
3800E00300
3800E00300
3800E00300
3800E00300
3800E00300
3800E00300
3800E00300
3800E00300
3800E00300
ENDCHAR
STARTCHAR F8FF
ENCODING 63743
SWIDTH 977 0
DWIDTH 38 0
BBX 29 32 4 -4
BITMAP
FFFFFFF8
FFFFFFF8
FFF77FF8
FFFFFFF8
80000008
FFFFFFF8
DDBFB3D8
DFDBF5D8
FFFFFFF8
80000008
FFFFFFF8
81064408
93274D08
E3071F38
93E79F38
81C71E38
FFFFFFF8
80000008
FFFFFFF8
AFBBFF98
FDBDEED8
FFFFFFF8
FFFFFFF8
FFFFFFF8
FFFFFFF8
FEBB6BF8
FFFFFFF8
FFFFFFF8
00000000
00000000
00000000
D43B6078
ENDCHAR
STARTCHAR FB01
ENCODING 64257
SWIDTH 642 0
DWIDTH 25 0
BBX 19 28 2 1
BITMAP
07F000
0FF1E0
1F31E0
1C01E0
1C0000
380000
380000
380000
FFF0C0
FFF0C0
FFF0C0
3800C0
3800C0
3800C0
3800C0
3800C0
3800C0
3800C0
3800C0
3800C0
3800C0
3800C0
3800C0
3800C0
3800C0
3800C0
3800C0
3800C0
ENDCHAR
STARTCHAR FB02
ENCODING 64258
SWIDTH 642 0
DWIDTH 25 0
BBX 18 28 2 1
BITMAP
07F0C0
0FF0C0
1E10C0
1C00C0
1C00C0
3800C0
3800C0
3800C0
FFF0C0
FFF0C0
FFF0C0
3800C0
3800C0
3800C0
3800C0
3800C0
3800C0
3800C0
3800C0
3800C0
3800C0
3800C0
3800C0
3800C0
3800C0
3800C0
3800C0
3800C0
ENDCHAR
ENDFONT
